{
	"patcher" : 	{
		"fileversion" : 1,
		"appversion" : 		{
			"major" : 8,
			"minor" : 2,
			"revision" : 1,
			"architecture" : "x64",
			"modernui" : 1
		}
,
		"classnamespace" : "box",
		"rect" : [ 238.0, 232.0, 880.0, 658.0 ],
		"bglocked" : 0,
		"openinpresentation" : 1,
		"default_fontsize" : 12.0,
		"default_fontface" : 0,
		"default_fontname" : "Arial",
		"gridonopen" : 1,
		"gridsize" : [ 15.0, 15.0 ],
		"gridsnaponopen" : 1,
		"objectsnaponopen" : 1,
		"statusbarvisible" : 2,
		"toolbarvisible" : 1,
		"lefttoolbarpinned" : 0,
		"toptoolbarpinned" : 0,
		"righttoolbarpinned" : 0,
		"bottomtoolbarpinned" : 0,
		"toolbars_unpinned_last_save" : 0,
		"tallnewobj" : 0,
		"boxanimatetime" : 200,
		"enablehscroll" : 1,
		"enablevscroll" : 1,
		"devicewidth" : 0.0,
		"description" : "",
		"digest" : "",
		"tags" : "",
		"style" : "",
		"subpatcher_template" : "",
		"assistshowspatchername" : 0,
		"boxes" : [ 			{
				"box" : 				{
					"id" : "obj-5",
					"maxclass" : "message",
					"numinlets" : 2,
					"numoutlets" : 1,
					"outlettype" : [ "" ],
					"patching_rect" : [ 238.0, 437.0, 41.0, 22.0 ],
					"text" : "set $1"
				}

			}
, 			{
				"box" : 				{
					"comment" : "",
					"id" : "obj-3",
					"index" : 0,
					"maxclass" : "inlet",
					"numinlets" : 0,
					"numoutlets" : 1,
					"outlettype" : [ "" ],
					"patching_rect" : [ 239.0, 395.0, 30.0, 30.0 ]
				}

			}
, 			{
				"box" : 				{
					"id" : "obj-110",
					"maxclass" : "newobj",
					"numinlets" : 0,
					"numoutlets" : 7,
					"outlettype" : [ "", "", "", "", "", "", "" ],
					"patcher" : 					{
						"fileversion" : 1,
						"appversion" : 						{
							"major" : 8,
							"minor" : 2,
							"revision" : 1,
							"architecture" : "x64",
							"modernui" : 1
						}
,
						"classnamespace" : "box",
						"rect" : [ 399.0, 201.0, 640.0, 480.0 ],
						"bglocked" : 0,
						"openinpresentation" : 0,
						"default_fontsize" : 12.0,
						"default_fontface" : 0,
						"default_fontname" : "Arial",
						"gridonopen" : 1,
						"gridsize" : [ 15.0, 15.0 ],
						"gridsnaponopen" : 1,
						"objectsnaponopen" : 1,
						"statusbarvisible" : 2,
						"toolbarvisible" : 1,
						"lefttoolbarpinned" : 0,
						"toptoolbarpinned" : 0,
						"righttoolbarpinned" : 0,
						"bottomtoolbarpinned" : 0,
						"toolbars_unpinned_last_save" : 0,
						"tallnewobj" : 0,
						"boxanimatetime" : 200,
						"enablehscroll" : 1,
						"enablevscroll" : 1,
						"devicewidth" : 0.0,
						"description" : "",
						"digest" : "",
						"tags" : "",
						"style" : "",
						"subpatcher_template" : "",
						"assistshowspatchername" : 0,
						"visible" : 1,
						"boxes" : [ 							{
								"box" : 								{
									"id" : "obj-6",
									"maxclass" : "newobj",
									"numinlets" : 2,
									"numoutlets" : 1,
									"outlettype" : [ "int" ],
									"patching_rect" : [ 464.0, 315.0, 29.5, 22.0 ],
									"text" : "int"
								}

							}
, 							{
								"box" : 								{
									"id" : "obj-5",
									"maxclass" : "newobj",
									"numinlets" : 2,
									"numoutlets" : 1,
									"outlettype" : [ "int" ],
									"patching_rect" : [ 420.0, 315.0, 29.5, 22.0 ],
									"text" : "int"
								}

							}
, 							{
								"box" : 								{
									"id" : "obj-4",
									"maxclass" : "newobj",
									"numinlets" : 2,
									"numoutlets" : 1,
									"outlettype" : [ "int" ],
									"patching_rect" : [ 369.0, 315.0, 29.5, 22.0 ],
									"text" : "int"
								}

							}
, 							{
								"box" : 								{
									"id" : "obj-2",
									"maxclass" : "newobj",
									"numinlets" : 0,
									"numoutlets" : 1,
									"outlettype" : [ "" ],
									"patching_rect" : [ 507.0, 21.0, 35.0, 22.0 ],
									"text" : "r sec"
								}

							}
, 							{
								"box" : 								{
									"id" : "obj-1",
									"maxclass" : "newobj",
									"numinlets" : 0,
									"numoutlets" : 1,
									"outlettype" : [ "" ],
									"patching_rect" : [ 60.0, 21.0, 38.0, 22.0 ],
									"text" : "r play"
								}

							}
, 							{
								"box" : 								{
									"id" : "obj-77",
									"maxclass" : "message",
									"numinlets" : 2,
									"numoutlets" : 1,
									"outlettype" : [ "" ],
									"patching_rect" : [ 229.5, 230.0, 47.0, 22.0 ],
									"text" : "size $1"
								}

							}
, 							{
								"box" : 								{
									"id" : "obj-66",
									"maxclass" : "newobj",
									"numinlets" : 2,
									"numoutlets" : 1,
									"outlettype" : [ "float" ],
									"patching_rect" : [ 369.0, 283.0, 40.0, 22.0 ],
									"text" : "* 0.25"
								}

							}
, 							{
								"box" : 								{
									"id" : "obj-67",
									"maxclass" : "message",
									"numinlets" : 2,
									"numoutlets" : 1,
									"outlettype" : [ "" ],
									"patching_rect" : [ 369.0, 347.0, 41.0, 22.0 ],
									"text" : "set $1"
								}

							}
, 							{
								"box" : 								{
									"id" : "obj-64",
									"maxclass" : "newobj",
									"numinlets" : 2,
									"numoutlets" : 1,
									"outlettype" : [ "float" ],
									"patching_rect" : [ 419.5, 283.0, 33.0, 22.0 ],
									"text" : "* 0.5"
								}

							}
, 							{
								"box" : 								{
									"id" : "obj-63",
									"maxclass" : "newobj",
									"numinlets" : 2,
									"numoutlets" : 1,
									"outlettype" : [ "float" ],
									"patching_rect" : [ 464.0, 283.0, 40.0, 22.0 ],
									"text" : "* 0.75"
								}

							}
, 							{
								"box" : 								{
									"id" : "obj-61",
									"maxclass" : "message",
									"numinlets" : 2,
									"numoutlets" : 1,
									"outlettype" : [ "" ],
									"patching_rect" : [ 419.5, 347.0, 41.0, 22.0 ],
									"text" : "set $1"
								}

							}
, 							{
								"box" : 								{
									"id" : "obj-60",
									"maxclass" : "message",
									"numinlets" : 2,
									"numoutlets" : 1,
									"outlettype" : [ "" ],
									"patching_rect" : [ 464.0, 347.0, 41.0, 22.0 ],
									"text" : "set $1"
								}

							}
, 							{
								"box" : 								{
									"id" : "obj-56",
									"maxclass" : "message",
									"numinlets" : 2,
									"numoutlets" : 1,
									"outlettype" : [ "" ],
									"patching_rect" : [ 507.0, 347.0, 41.0, 22.0 ],
									"text" : "set $1"
								}

							}
, 							{
								"box" : 								{
									"id" : "obj-95",
									"linecount" : 2,
									"maxclass" : "comment",
									"numinlets" : 1,
									"numoutlets" : 0,
									"patching_rect" : [ 77.5, 224.5, 150.0, 33.0 ],
									"text" : "set the size of the x axis, but keep the shape"
								}

							}
, 							{
								"box" : 								{
									"id" : "obj-12",
									"maxclass" : "message",
									"numinlets" : 2,
									"numoutlets" : 1,
									"outlettype" : [ "" ],
									"patching_rect" : [ 280.5, 230.0, 81.0, 22.0 ],
									"text" : "setdomain $1"
								}

							}
, 							{
								"box" : 								{
									"id" : "obj-97",
									"maxclass" : "newobj",
									"numinlets" : 2,
									"numoutlets" : 1,
									"outlettype" : [ "float" ],
									"patching_rect" : [ 229.5, 101.0, 47.0, 22.0 ],
									"text" : "* 1000."
								}

							}
, 							{
								"box" : 								{
									"comment" : "",
									"id" : "obj-102",
									"index" : 1,
									"maxclass" : "outlet",
									"numinlets" : 1,
									"numoutlets" : 0,
									"patching_rect" : [ 60.0, 403.0, 30.0, 30.0 ]
								}

							}
, 							{
								"box" : 								{
									"comment" : "",
									"id" : "obj-104",
									"index" : 2,
									"maxclass" : "outlet",
									"numinlets" : 1,
									"numoutlets" : 0,
									"patching_rect" : [ 229.5, 403.0, 30.0, 30.0 ]
								}

							}
, 							{
								"box" : 								{
									"comment" : "",
									"id" : "obj-105",
									"index" : 4,
									"maxclass" : "outlet",
									"numinlets" : 1,
									"numoutlets" : 0,
									"patching_rect" : [ 369.0, 403.0, 30.0, 30.0 ]
								}

							}
, 							{
								"box" : 								{
									"comment" : "",
									"id" : "obj-106",
									"index" : 3,
									"maxclass" : "outlet",
									"numinlets" : 1,
									"numoutlets" : 0,
									"patching_rect" : [ 280.5, 403.0, 30.0, 30.0 ]
								}

							}
, 							{
								"box" : 								{
									"comment" : "",
									"id" : "obj-107",
									"index" : 5,
									"maxclass" : "outlet",
									"numinlets" : 1,
									"numoutlets" : 0,
									"patching_rect" : [ 419.5, 403.0, 30.0, 30.0 ]
								}

							}
, 							{
								"box" : 								{
									"comment" : "",
									"id" : "obj-108",
									"index" : 6,
									"maxclass" : "outlet",
									"numinlets" : 1,
									"numoutlets" : 0,
									"patching_rect" : [ 464.0, 403.0, 30.0, 30.0 ]
								}

							}
, 							{
								"box" : 								{
									"comment" : "",
									"id" : "obj-109",
									"index" : 7,
									"maxclass" : "outlet",
									"numinlets" : 1,
									"numoutlets" : 0,
									"patching_rect" : [ 507.0, 403.0, 30.0, 30.0 ]
								}

							}
 ],
						"lines" : [ 							{
								"patchline" : 								{
									"destination" : [ "obj-102", 0 ],
									"source" : [ "obj-1", 0 ]
								}

							}
, 							{
								"patchline" : 								{
									"destination" : [ "obj-106", 0 ],
									"source" : [ "obj-12", 0 ]
								}

							}
, 							{
								"patchline" : 								{
									"destination" : [ "obj-56", 0 ],
									"order" : 0,
									"source" : [ "obj-2", 0 ]
								}

							}
, 							{
								"patchline" : 								{
									"destination" : [ "obj-63", 0 ],
									"order" : 1,
									"source" : [ "obj-2", 0 ]
								}

							}
, 							{
								"patchline" : 								{
									"destination" : [ "obj-64", 0 ],
									"order" : 2,
									"source" : [ "obj-2", 0 ]
								}

							}
, 							{
								"patchline" : 								{
									"destination" : [ "obj-66", 0 ],
									"order" : 3,
									"source" : [ "obj-2", 0 ]
								}

							}
, 							{
								"patchline" : 								{
									"destination" : [ "obj-97", 0 ],
									"order" : 4,
									"source" : [ "obj-2", 0 ]
								}

							}
, 							{
								"patchline" : 								{
									"destination" : [ "obj-67", 0 ],
									"source" : [ "obj-4", 0 ]
								}

							}
, 							{
								"patchline" : 								{
									"destination" : [ "obj-61", 0 ],
									"source" : [ "obj-5", 0 ]
								}

							}
, 							{
								"patchline" : 								{
									"destination" : [ "obj-109", 0 ],
									"source" : [ "obj-56", 0 ]
								}

							}
, 							{
								"patchline" : 								{
									"destination" : [ "obj-60", 0 ],
									"source" : [ "obj-6", 0 ]
								}

							}
, 							{
								"patchline" : 								{
									"destination" : [ "obj-108", 0 ],
									"source" : [ "obj-60", 0 ]
								}

							}
, 							{
								"patchline" : 								{
									"destination" : [ "obj-107", 0 ],
									"source" : [ "obj-61", 0 ]
								}

							}
, 							{
								"patchline" : 								{
									"destination" : [ "obj-6", 0 ],
									"source" : [ "obj-63", 0 ]
								}

							}
, 							{
								"patchline" : 								{
									"destination" : [ "obj-5", 0 ],
									"source" : [ "obj-64", 0 ]
								}

							}
, 							{
								"patchline" : 								{
									"destination" : [ "obj-4", 0 ],
									"source" : [ "obj-66", 0 ]
								}

							}
, 							{
								"patchline" : 								{
									"destination" : [ "obj-105", 0 ],
									"source" : [ "obj-67", 0 ]
								}

							}
, 							{
								"patchline" : 								{
									"destination" : [ "obj-104", 0 ],
									"source" : [ "obj-77", 0 ]
								}

							}
, 							{
								"patchline" : 								{
									"destination" : [ "obj-12", 0 ],
									"order" : 0,
									"source" : [ "obj-97", 0 ]
								}

							}
, 							{
								"patchline" : 								{
									"destination" : [ "obj-77", 0 ],
									"order" : 1,
									"source" : [ "obj-97", 0 ]
								}

							}
 ]
					}
,
					"patching_rect" : [ 385.0, 222.0, 103.0, 22.0 ],
					"saved_object_attributes" : 					{
						"description" : "",
						"digest" : "",
						"globalpatchername" : "",
						"tags" : ""
					}
,
					"text" : "p function_control"
				}

			}
, 			{
				"box" : 				{
					"id" : "obj-18",
					"maxclass" : "message",
					"numinlets" : 2,
					"numoutlets" : 1,
					"outlettype" : [ "" ],
					"patching_rect" : [ 337.0, 222.0, 39.0, 22.0 ],
					"presentation" : 1,
					"presentation_rect" : [ 12.0, 30.5, 35.0, 22.0 ],
					"text" : "clear"
				}

			}
, 			{
				"box" : 				{
					"id" : "obj-85",
					"maxclass" : "comment",
					"numinlets" : 1,
					"numoutlets" : 0,
					"patching_rect" : [ 344.5, 484.0, 38.0, 20.0 ],
					"presentation" : 1,
					"presentation_rect" : [ 280.0, 13.5, 38.0, 20.0 ],
					"text" : "Value"
				}

			}
, 			{
				"box" : 				{
					"id" : "obj-86",
					"maxclass" : "comment",
					"numinlets" : 1,
					"numoutlets" : 0,
					"patching_rect" : [ 268.0, 314.0, 66.0, 20.0 ],
					"presentation" : 1,
					"presentation_rect" : [ 319.5, 13.5, 66.0, 20.0 ],
					"text" : "TIME (MS)"
				}

			}
, 			{
				"box" : 				{
					"bgcolor" : [ 0.2, 0.2, 0.2, 0.0 ],
					"elementcolor" : [ 0.349019607843137, 0.349019607843137, 0.349019607843137, 0.0 ],
					"id" : "obj-75",
					"ignoreclick" : 1,
					"knobcolor" : [ 0.807843137254902, 0.898039215686275, 0.909803921568627, 0.31 ],
					"knobshape" : 5,
					"maxclass" : "slider",
					"numinlets" : 1,
					"numoutlets" : 1,
					"outlettype" : [ "" ],
					"parameter_enable" : 0,
					"patching_rect" : [ 378.0, 287.0, 366.0, 118.0 ],
					"presentation" : 1,
					"presentation_rect" : [ 12.0, 51.0, 367.0, 125.0 ],
					"size" : 180000.0
				}

			}
, 			{
				"box" : 				{
					"id" : "obj-65",
					"maxclass" : "comment",
					"numinlets" : 1,
					"numoutlets" : 0,
					"patching_rect" : [ 442.0, 407.0, 37.0, 20.0 ],
					"presentation" : 1,
					"presentation_rect" : [ 71.0, 175.0, 48.0, 20.0 ],
					"text" : "45",
					"textjustification" : 1
				}

			}
, 			{
				"box" : 				{
					"id" : "obj-59",
					"maxclass" : "comment",
					"numinlets" : 1,
					"numoutlets" : 0,
					"patching_rect" : [ 619.0, 407.0, 32.0, 20.0 ],
					"presentation" : 1,
					"presentation_rect" : [ 243.0, 175.0, 55.0, 20.0 ],
					"text" : "135",
					"textjustification" : 1
				}

			}
, 			{
				"box" : 				{
					"id" : "obj-58",
					"maxclass" : "comment",
					"numinlets" : 1,
					"numoutlets" : 0,
					"patching_rect" : [ 529.0, 407.0, 37.0, 20.0 ],
					"presentation" : 1,
					"presentation_rect" : [ 159.0, 175.0, 52.0, 20.0 ],
					"text" : "90",
					"textjustification" : 1
				}

			}
, 			{
				"box" : 				{
					"id" : "obj-87",
					"maxclass" : "comment",
					"numinlets" : 1,
					"numoutlets" : 0,
					"patching_rect" : [ 374.0, 407.0, 19.0, 20.0 ],
					"presentation" : 1,
					"presentation_rect" : [ 9.0, 175.0, 19.0, 20.0 ],
					"text" : "0"
				}

			}
, 			{
				"box" : 				{
					"id" : "obj-54",
					"maxclass" : "comment",
					"numinlets" : 1,
					"numoutlets" : 0,
					"patching_rect" : [ 725.0, 407.0, 30.0, 20.0 ],
					"presentation" : 1,
					"presentation_rect" : [ 335.0, 175.0, 44.0, 20.0 ],
					"text" : "180",
					"textjustification" : 2
				}

			}
, 			{
				"box" : 				{
					"bgcolor" : [ 1.0, 1.0, 1.0, 1.0 ],
					"bgcolor2" : [ 1.0, 1.0, 1.0, 1.0 ],
					"bgfillcolor_angle" : 270.0,
					"bgfillcolor_autogradient" : 0.0,
					"bgfillcolor_color" : [ 0.847058823529412, 0.847058823529412, 0.847058823529412, 1.0 ],
					"bgfillcolor_color1" : [ 1.0, 1.0, 1.0, 1.0 ],
					"bgfillcolor_color2" : [ 0.2, 0.2, 0.2, 1.0 ],
					"bgfillcolor_proportion" : 0.5,
					"bgfillcolor_type" : "color",
					"fontname" : "Ableton Sans Medium Bold",
					"fontsize" : 9.5,
					"gradient" : 1,
					"id" : "obj-47",
					"maxclass" : "message",
					"numinlets" : 2,
					"numoutlets" : 1,
					"outlettype" : [ "" ],
					"patching_rect" : [ 268.0, 287.0, 34.0, 18.0 ],
					"presentation" : 1,
					"presentation_rect" : [ 328.0, 30.5, 38.5, 18.0 ],
					"text" : "1180",
					"textcolor" : [ 0.0, 0.0, 0.0, 1.0 ],
					"textjustification" : 1
				}

			}
, 			{
				"box" : 				{
					"addpoints_with_curve" : [ 3195.266272189348911, 0.10752688172043, 0, 0.0, 53254.437869822490029, 1.0, 0, 0.0, 79349.112426035484532, 0.419354838709677, 0, 0.0, 121420.118343195266789, 1.0, 0, 0.0, 175207.100591715949122, 0.0, 0, 0.0 ],
					"clicksustain" : 0,
					"domain" : 180000.0,
					"id" : "obj-96",
					"maxclass" : "function",
					"mode" : 1,
					"numinlets" : 1,
					"numoutlets" : 4,
					"outlettype" : [ "float", "", "", "bang" ],
					"parameter_enable" : 0,
					"patching_rect" : [ 385.0, 287.0, 350.0, 118.0 ],
					"presentation" : 1,
					"presentation_rect" : [ 12.0, 55.0, 365.0, 118.0 ]
				}

			}
, 			{
				"box" : 				{
					"id" : "obj-81",
					"maxclass" : "newobj",
					"numinlets" : 1,
					"numoutlets" : 0,
					"patching_rect" : [ 381.5, 597.0, 47.0, 22.0 ],
					"text" : "s value"
				}

			}
, 			{
				"box" : 				{
					"id" : "obj-80",
					"maxclass" : "newobj",
					"numinlets" : 1,
					"numoutlets" : 0,
					"patching_rect" : [ 502.5, 544.0, 48.0, 22.0 ],
					"text" : "s GPIO"
				}

			}
, 			{
				"box" : 				{
					"id" : "obj-11",
					"items" : [ "BOARD7", ",", "BOARD8", ",", "BOARD9", ",", "BOARD10", ",", "BOARD11", ",", "BOARD12", ",", "BOARD13", ",", "BOARD15", ",", "BOARD16", ",", "BOARD18", ",", "BOARD22", ",", "BOARD29", ",", "BOARD31", ",", "BOARD32", ",", "BOARD33", ",", "BOARD35", ",", "BOARD36", ",", "BOARD37", ",", "BOARD38", ",", "BOARD40" ],
					"maxclass" : "umenu",
					"numinlets" : 1,
					"numoutlets" : 3,
					"outlettype" : [ "int", "", "" ],
					"parameter_enable" : 0,
					"patching_rect" : [ 448.5, 479.0, 95.0, 22.0 ],
					"presentation" : 1,
					"presentation_rect" : [ 54.0, 32.0, 85.0, 22.0 ]
				}

			}
, 			{
				"box" : 				{
					"id" : "obj-52",
					"maxclass" : "newobj",
					"numinlets" : 1,
					"numoutlets" : 1,
					"outlettype" : [ "" ],
					"patching_rect" : [ 502.5, 518.0, 99.0, 22.0 ],
					"text" : "prepend GPIO 1:"
				}

			}
, 			{
				"box" : 				{
					"id" : "obj-26",
					"maxclass" : "comment",
					"numinlets" : 1,
					"numoutlets" : 0,
					"patching_rect" : [ 448.5, 459.0, 85.0, 20.0 ],
					"presentation" : 1,
					"presentation_rect" : [ 54.0, 13.5, 85.0, 20.0 ],
					"text" : "Set GPIO Port"
				}

			}
, 			{
				"box" : 				{
					"id" : "obj-29",
					"maxclass" : "newobj",
					"numinlets" : 1,
					"numoutlets" : 1,
					"outlettype" : [ "" ],
					"patching_rect" : [ 411.5, 518.0, 72.0, 22.0 ],
					"text" : "prepend set"
				}

			}
, 			{
				"box" : 				{
					"id" : "obj-20",
					"maxclass" : "newobj",
					"numinlets" : 1,
					"numoutlets" : 1,
					"outlettype" : [ "" ],
					"patching_rect" : [ 381.5, 550.0, 63.0, 22.0 ],
					"text" : "prepend 1"
				}

			}
, 			{
				"box" : 				{
					"fontsize" : 18.0,
					"id" : "obj-19",
					"maxclass" : "comment",
					"numinlets" : 1,
					"numoutlets" : 0,
					"patching_rect" : [ 239.0, 479.0, 52.0, 27.0 ],
					"presentation" : 1,
					"presentation_rect" : [ 8.0, 3.0, 39.0, 27.0 ],
					"text" : "1"
				}

			}
, 			{
				"box" : 				{
					"id" : "obj-15",
					"maxclass" : "live.numbox",
					"numinlets" : 1,
					"numoutlets" : 2,
					"outlettype" : [ "", "float" ],
					"parameter_enable" : 1,
					"patching_rect" : [ 381.5, 484.0, 51.0, 15.0 ],
					"presentation" : 1,
					"presentation_rect" : [ 280.0, 32.0, 36.0, 15.0 ],
					"saved_attribute_attributes" : 					{
						"valueof" : 						{
							"parameter_initial" : [ 0.0 ],
							"parameter_longname" : "live.numbox",
							"parameter_mmax" : 1.0,
							"parameter_shortname" : "live.numbox",
							"parameter_type" : 0,
							"parameter_units" : "i",
							"parameter_unitstyle" : 1
						}

					}
,
					"varname" : "live.numbox"
				}

			}
, 			{
				"box" : 				{
					"angle" : 270.0,
					"bgcolor" : [ 0.647058823529412, 0.647058823529412, 0.647058823529412, 1.0 ],
					"id" : "obj-112",
					"maxclass" : "panel",
					"mode" : 0,
					"numinlets" : 1,
					"numoutlets" : 0,
					"patching_rect" : [ 696.0, 208.0, 39.0, 36.0 ],
					"presentation" : 1,
					"presentation_rect" : [ 0.0, 0.0, 390.0, 200.0 ],
					"proportion" : 0.39
				}

			}
 ],
		"lines" : [ 			{
				"patchline" : 				{
					"destination" : [ "obj-29", 0 ],
					"order" : 1,
					"source" : [ "obj-11", 1 ]
				}

			}
, 			{
				"patchline" : 				{
					"destination" : [ "obj-52", 0 ],
					"order" : 0,
					"source" : [ "obj-11", 1 ]
				}

			}
, 			{
				"patchline" : 				{
					"destination" : [ "obj-47", 1 ],
					"order" : 2,
					"source" : [ "obj-110", 0 ]
				}

			}
, 			{
				"patchline" : 				{
					"destination" : [ "obj-54", 0 ],
					"source" : [ "obj-110", 6 ]
				}

			}
, 			{
				"patchline" : 				{
					"destination" : [ "obj-58", 0 ],
					"source" : [ "obj-110", 4 ]
				}

			}
, 			{
				"patchline" : 				{
					"destination" : [ "obj-59", 0 ],
					"source" : [ "obj-110", 5 ]
				}

			}
, 			{
				"patchline" : 				{
					"destination" : [ "obj-65", 0 ],
					"source" : [ "obj-110", 3 ]
				}

			}
, 			{
				"patchline" : 				{
					"destination" : [ "obj-75", 0 ],
					"source" : [ "obj-110", 1 ]
				}

			}
, 			{
				"patchline" : 				{
					"destination" : [ "obj-75", 0 ],
					"order" : 1,
					"source" : [ "obj-110", 0 ]
				}

			}
, 			{
				"patchline" : 				{
					"destination" : [ "obj-96", 0 ],
					"source" : [ "obj-110", 2 ]
				}

			}
, 			{
				"patchline" : 				{
					"destination" : [ "obj-96", 0 ],
					"order" : 0,
					"source" : [ "obj-110", 0 ]
				}

			}
, 			{
				"patchline" : 				{
					"destination" : [ "obj-20", 0 ],
					"source" : [ "obj-15", 0 ]
				}

			}
, 			{
				"patchline" : 				{
					"destination" : [ "obj-96", 0 ],
					"source" : [ "obj-18", 0 ]
				}

			}
, 			{
				"patchline" : 				{
					"destination" : [ "obj-81", 0 ],
					"source" : [ "obj-20", 0 ]
				}

			}
, 			{
				"patchline" : 				{
					"destination" : [ "obj-20", 0 ],
					"source" : [ "obj-29", 0 ]
				}

			}
, 			{
				"patchline" : 				{
					"destination" : [ "obj-11", 0 ],
					"order" : 0,
					"source" : [ "obj-3", 0 ]
				}

			}
, 			{
				"patchline" : 				{
					"destination" : [ "obj-5", 0 ],
					"order" : 1,
					"source" : [ "obj-3", 0 ]
				}

			}
, 			{
				"patchline" : 				{
					"destination" : [ "obj-19", 0 ],
					"source" : [ "obj-5", 0 ]
				}

			}
, 			{
				"patchline" : 				{
					"destination" : [ "obj-80", 0 ],
					"source" : [ "obj-52", 0 ]
				}

			}
, 			{
				"patchline" : 				{
					"destination" : [ "obj-15", 0 ],
					"source" : [ "obj-96", 0 ]
				}

			}
 ],
		"parameters" : 		{
			"obj-15" : [ "live.numbox", "live.numbox", 0 ],
			"parameterbanks" : 			{

			}
,
			"inherited_shortname" : 1
		}
,
		"dependency_cache" : [  ],
		"autosave" : 0
	}

}
